<?xml version="1.0" encoding="UTF-8" standalone="no"?>
<svg
   version="1.1"
   id="Layer_1"
   x="0px"
   y="0px"
   viewBox="0 0 511.998 511.998"
   style="enable-background:new 0 0 511.998 511.998;"
   xml:space="preserve"
   sodipodi:docname="clown.svg"
   inkscape:version="1.1.1 (3bf5ae0d25, 2021-09-20)"
   xmlns:inkscape="http://www.inkscape.org/namespaces/inkscape"
   xmlns:sodipodi="http://sodipodi.sourceforge.net/DTD/sodipodi-0.dtd"
   xmlns="http://www.w3.org/2000/svg"
   xmlns:svg="http://www.w3.org/2000/svg"
   xmlns:rdf="http://www.w3.org/1999/02/22-rdf-syntax-ns#"
   xmlns:cc="http://creativecommons.org/ns#"
   xmlns:dc="http://purl.org/dc/elements/1.1/"><metadata
   id="metadata203"><rdf:RDF><cc:Work
       rdf:about=""><dc:format>image/svg+xml</dc:format><dc:type
         rdf:resource="http://purl.org/dc/dcmitype/StillImage" /></cc:Work></rdf:RDF></metadata><defs
   id="defs201">
	
	
	
	
	
	
</defs><sodipodi:namedview
   pagecolor="#ffffff"
   bordercolor="#666666"
   borderopacity="1"
   objecttolerance="10"
   gridtolerance="10"
   guidetolerance="10"
   inkscape:pageopacity="0"
   inkscape:pageshadow="2"
   inkscape:window-width="1920"
   inkscape:window-height="983"
   id="namedview199"
   showgrid="false"
   inkscape:zoom="1.5332091"
   inkscape:cx="241.65001"
   inkscape:cy="125.55365"
   inkscape:window-x="0"
   inkscape:window-y="30"
   inkscape:window-maximized="1"
   inkscape:current-layer="g146"
   inkscape:pagecheckerboard="0" />
<path
   style="fill:#01579b;fill-opacity:1"
   d="M 481.821,50.909 H 439.623 V 8.711 c 0,-4.661 -3.778,-8.44 -8.44,-8.44 -4.662,0 -8.44,3.779 -8.44,8.44 v 42.198 h -42.197 c -4.662,0 -8.44,3.779 -8.44,8.44 0,4.661 3.778,8.44 8.44,8.44 h 42.198 v 42.198 c 0,4.661 3.778,8.44 8.44,8.44 4.662,0 8.44,-3.779 8.44,-8.44 V 67.788 h 42.198 c 4.662,0 8.44,-3.779 8.44,-8.44 0,-4.661 -3.781,-8.439 -8.441,-8.439 z"
   id="path943" /><path
   style="fill:#b71c1c;fill-opacity:1"
   d="m 256,511.727 c -90.462,0 -176.973999,-38.688 -237.355999,-106.144 -26.9409996,-30.098 -24.3819996,-76.34 5.716,-103.281 30.098,-26.944 76.337999,-24.381 103.280999,5.716 32.666,36.494 79.45,57.423 128.358,57.423 48.908,0 95.692,-20.93 128.358,-57.423 26.94,-30.1 73.182,-32.66 103.281,-5.716 30.099,26.941 32.658,73.183 5.716,103.281 C 432.975,473.039 346.462,511.727 256,511.727 Z"
   id="path140" />
<g
   id="g146">
	<path
   style="fill:#000000;fill-opacity:1"
   d="M256,447.025c-72.082,0-141.022-30.834-189.145-84.595c-3.109-3.473-2.814-8.809,0.659-11.917   c3.473-3.109,8.809-2.813,11.917,0.659c44.925,50.188,109.282,78.973,176.569,78.973s131.643-28.784,176.569-78.973   c3.106-3.473,8.442-3.77,11.917-0.659c3.474,3.109,3.769,8.444,0.659,11.917C397.024,416.191,328.082,447.025,256,447.025z"
   id="path142" />
	<circle
   style="fill:#b71c1c;fill-opacity:1"
   cx="256"
   cy="191.881"
   r="94.793"
   id="circle144" />
</g>

<path
   style="fill:#01579b;fill-opacity:1"
   d="M 134.604,50.909 H 92.406 V 8.711 c 0,-4.661 -3.778,-8.44 -8.44,-8.44 -4.662,0 -8.44,3.779 -8.44,8.44 V 50.909 H 33.329 c -4.662,0 -8.44,3.779 -8.44,8.44 0,4.661 3.778,8.44 8.44,8.44 h 42.198 v 42.198 c 0,4.661 3.778,8.44 8.44,8.44 4.662,0 8.44,-3.779 8.44,-8.44 V 67.788 h 42.198 c 4.662,0 8.44,-3.779 8.44,-8.44 0,-4.661 -3.781,-8.439 -8.441,-8.439 z"
   id="path164" />
<g
   id="g168">
</g>
<g
   id="g170">
</g>
<g
   id="g172">
</g>
<g
   id="g174">
</g>
<g
   id="g176">
</g>
<g
   id="g178">
</g>
<g
   id="g180">
</g>
<g
   id="g182">
</g>
<g
   id="g184">
</g>
<g
   id="g186">
</g>
<g
   id="g188">
</g>
<g
   id="g190">
</g>
<g
   id="g192">
</g>
<g
   id="g194">
</g>
<g
   id="g196">
</g>
</svg>
